<?xml version="1.0" encoding="utf-8"?>
<!-- Generator: Adobe Illustrator 26.3.1, SVG Export Plug-In . SVG Version: 6.00 Build 0)  -->
<svg version="1.1" id="Layer_2_00000073681346454878811650000007835089140791526067_"
	 xmlns="http://www.w3.org/2000/svg" xmlns:xlink="http://www.w3.org/1999/xlink" x="0px" y="0px" viewBox="0 0 329.2 59.4"
	 style="enable-background:new 0 0 329.2 59.4;" xml:space="preserve">
<style type="text/css">
	.st0{fill:none;stroke:#FFFFFF;stroke-miterlimit:10;}
</style>
<g id="Layer_1-2">
	<path class="st0" d="M45.3,6.1C31.5,8.3,18.2,14.1,7,22.6c-3.7,2.9-7.6,7.2-6.2,11.7c0.7,2.1,2.4,3.7,4.3,5.1
		c10.7,7.7,24.8,8.6,38,9.2c70.6,3.3,141.3,6.5,211.9,9.8c23.5,1.1,49.1,1.6,68-12.4c3.6-2.7,7.2-7.3,5.2-11.4c-1-2-3.1-3.1-5.1-4.1
		C275.8,7,221.2,4.8,168.6,3C122,1.4,75.4-0.2,28.8,0.8"/>
</g>
</svg>
