<?xml version="1.0" encoding="utf-8"?>
<!-- Generator: Adobe Illustrator 26.3.1, SVG Export Plug-In . SVG Version: 6.00 Build 0)  -->
<svg version="1.1" id="Layer_2_00000096765784641485658200000011086747371107051935_"
	 xmlns="http://www.w3.org/2000/svg" xmlns:xlink="http://www.w3.org/1999/xlink" x="0px" y="0px" viewBox="0 0 315.5 66.2"
	 style="enable-background:new 0 0 315.5 66.2;" xml:space="preserve">
<style type="text/css">
	.st0{fill:none;stroke:#FFFFFF;stroke-miterlimit:10;}
</style>
<g id="Layer_1-2">
	<path class="st0" d="M162.7,15.7c-45-20.1-98.5-20.3-143.6-0.7C10.4,18.8,0.9,25,0.5,34.5c-0.3,7.8,6.1,14.4,13.1,17.9
		c10.3,5.1,22.3,5.6,33.8,6c73,2.4,146,4.8,219,7.3c9.2,0.3,18.8,0.5,27.1-3.5c7.1-3.5,12.4-9.7,17.5-15.8c2.1-2.5,4.3-5.4,3.8-8.6
		c-0.5-3.4-3.7-5.5-6.7-7.1c-18.8-9.9-40.4-12.8-61.5-15.2c-45.1-5.1-90.4-8.4-135.8-9.7"/>
</g>
</svg>
