<?xml version="1.0" encoding="utf-8"?>
<!-- Generator: Adobe Illustrator 26.3.1, SVG Export Plug-In . SVG Version: 6.00 Build 0)  -->
<svg version="1.1" id="Layer_2_00000013912898706295477040000017052738416305204401_"
	 xmlns="http://www.w3.org/2000/svg" xmlns:xlink="http://www.w3.org/1999/xlink" x="0px" y="0px" viewBox="0 0 321.7 64.4"
	 style="enable-background:new 0 0 321.7 64.4;" xml:space="preserve">
<style type="text/css">
	.st0{fill:none;stroke:#FFFFFF;stroke-miterlimit:10;}
</style>
<g id="Layer_1-2">
	<path class="st0" d="M52.7,9.5c-8-5-18.6-3.9-27,0.4S10.6,21.1,4.2,28c-1.9,2.1-4,4.5-3.6,7.3c0.4,2.5,2.7,4.3,4.9,5.6
		c17.2,10.6,38,13.7,58.1,15.9c48,5.2,96.4,6.5,144.6,7c16.3,0.2,32.7,0.2,48.6-3.5c18.7-4.4,35.8-14,52.5-23.5
		c5.9-3.3,12.7-8.3,11.9-15c-0.7-5.9-7-9.3-12.7-11.4C271.7-2.7,231.3,0,192.3,2.9C128.4,7.6,64.6,12.4,0.8,17.1"/>
</g>
</svg>
