<?xml version="1.0" encoding="utf-8"?>
<!-- Generator: Adobe Illustrator 26.3.1, SVG Export Plug-In . SVG Version: 6.00 Build 0)  -->
<svg version="1.1" id="Layer_2_00000091736188233568975610000014591591784289232790_"
	 xmlns="http://www.w3.org/2000/svg" xmlns:xlink="http://www.w3.org/1999/xlink" x="0px" y="0px" viewBox="0 0 312.6 48"
	 style="enable-background:new 0 0 312.6 48;" xml:space="preserve">
<style type="text/css">
	.st0{fill:none;stroke:#FFFFFF;stroke-miterlimit:10;}
</style>
<g id="Layer_1-2">
	<path class="st0" d="M51.1,3.1C37,2.9,22.8,5.5,9.6,10.7c-3.1,1.2-6.3,2.7-7.9,5.5c-2.4,4-0.7,9.5,2.7,12.8s8.1,4.8,12.6,6
		c24.4,6.6,50,7.6,75.3,8.5l74,2.8c41.6,1.5,83.6,3.1,124.4-5.1c10.2-2,22.7-7.9,21.6-18.2c-1.1-9.9-13.7-13.2-23.6-14
		c-28-2.1-56.1-2.9-84.2-3.6L22.8,0.5"/>
</g>
</svg>
