<?xml version="1.0" encoding="utf-8"?>
<!-- Generator: Adobe Illustrator 26.3.1, SVG Export Plug-In . SVG Version: 6.00 Build 0)  -->
<svg version="1.1" id="Layer_2_00000026877073543289087220000004954815327157647256_"
	 xmlns="http://www.w3.org/2000/svg" xmlns:xlink="http://www.w3.org/1999/xlink" x="0px" y="0px" viewBox="0 0 322.9 60.3"
	 style="enable-background:new 0 0 322.9 60.3;" xml:space="preserve">
<style type="text/css">
	.st0{fill:none;stroke:#FFFFFF;stroke-miterlimit:10;}
</style>
<g id="Layer_1-2">
	<path class="st0" d="M46.1,21.3C29.6,14.5,5.7,18.6,1,35.8c-0.6,2.2-0.8,4.5,0,6.6c1.8,4.3,7.2,5.6,11.8,6.2
		c84,11.8,169.2,11.4,254,10.9c16.4-0.1,33.1-0.2,48.8-5.2c2.4-0.8,4.9-1.8,6.1-4c2.3-4.4-2.5-9.1-6.9-11.4
		c-15.4-8.2-33-11.3-50.2-14.3C205.8,14.3,146.6,4,86.8,0.8c-20.6-1.1-44.4,0.1-57,16.4C26.9,21,27.2,29,31.9,28"/>
</g>
</svg>
