<?xml version="1.0" encoding="utf-8"?>
<!-- Generator: Adobe Illustrator 26.3.1, SVG Export Plug-In . SVG Version: 6.00 Build 0)  -->
<svg version="1.1" id="Layer_2_00000001627966053239215770000009556109195922819223_"
	 xmlns="http://www.w3.org/2000/svg" xmlns:xlink="http://www.w3.org/1999/xlink" x="0px" y="0px" viewBox="0 0 316.1 61.7"
	 style="enable-background:new 0 0 316.1 61.7;" xml:space="preserve">
<style type="text/css">
	.st0{fill:none;stroke:#FFFFFF;stroke-miterlimit:10;}
</style>
<g id="Layer_1-2">
	<path class="st0" d="M49.5,4c-12.4-1.3-25-0.4-37,2.7C8.4,7.8,4,9.3,1.8,12.9c-4.9,8,4.6,17.2,13.2,21.1
		C42.6,46.5,73.3,49.8,103.4,53c31.1,3.3,62.2,6.6,93.5,7.9c40,1.6,84.4-1.9,112.6-30.3c4.2-4.2,8.1-10.9,4.8-15.8
		c-1.7-2.5-4.7-3.7-7.6-4.6c-35.1-11.5-73-8.4-109.9-7c-43,1.7-86.1,0.9-128.9-2.2C57.2,0.1,44.9-0.4,37,7.1"/>
</g>
</svg>
