<?xml version="1.0" encoding="UTF-8"?><svg id="Layer_2" xmlns="http://www.w3.org/2000/svg" viewBox="0 0 462.47 107.33"><defs><style>.cls-1{fill:#fff;}</style></defs><g id="Layer_1-2"><g><path class="cls-1" d="M44.27,104.43H0V2.9H44.27v30.46H6.16v11.6H42.85v17.4H6.16v11.6H44.27v30.46Z"/><path class="cls-1" d="M83.48,107.33L50.05,2.9h8.19l20.98,65.41L100.19,2.9h16.72l-33.43,104.43Z"/><path class="cls-1" d="M167,104.43h-44.27V2.9h44.27v30.46h-38.12v11.6h36.7v17.4h-36.7v11.6h38.12v30.46Z"/><path class="cls-1" d="M184.52,104.43h-6.16V2.9h32.58c14.35,0,21.31,8.99,21.31,36.4,0,21.76-4.36,31.91-13.31,35.1l11.65,30.02h-8.52l-11.17-28.72h-26.37v28.72Zm35.42-59.18c4.55,0,5.92-1.89,5.92-5.95s-1.37-5.95-5.92-5.95h-35.42v11.89h35.42Z"/><path class="cls-1" d="M243.24,2.9l15.58,41.05,15.58-41.05h16.72l-26.37,69.62v31.91h-6.16v-39.45L235.04,2.9h8.19Z"/><path class="cls-1" d="M297.55,2.9h28.51c18.04,0,25.33,23.35,25.33,50.76s-7.29,50.76-25.33,50.76h-28.51V2.9Zm6.16,34.81v31.91h27.32c10.51,0,13.97-7.25,13.97-15.95s-3.46-15.95-13.97-15.95h-27.32Z"/><path class="cls-1" d="M410.67,104.43l-4.97-15.52h-40.53l-4.97,15.52h-8.19L385.43,0l33.43,104.43h-8.19Zm-15.2-47.43l-10.04-31.33-10.04,31.33h20.08Z"/><path class="cls-1" d="M414.59,2.9l15.58,41.05,15.58-41.05h16.72l-26.37,69.62v31.91h-6.16v-39.45L406.4,2.9h8.19Z"/></g></g></svg>